<?xml version="1.0" standalone="no"?>
<!DOCTYPE svg PUBLIC "-//W3C//DTD SVG 20010904//EN"
 "http://www.w3.org/TR/2001/REC-SVG-20010904/DTD/svg10.dtd">
<svg version="1.0" xmlns="http://www.w3.org/2000/svg"
 width="1024.000000pt" height="1024.000000pt" viewBox="0 0 1024.000000 1024.000000"
 preserveAspectRatio="xMidYMid meet">
<metadata>
Created by potrace 1.14, written by Peter Selinger 2001-2017
</metadata>
<g transform="translate(0.000000,1024.000000) scale(0.100000,-0.100000)"
fill="#000000" stroke="none">
<path d="M0 5120 l0 -5120 5120 0 5120 0 0 5120 0 5120 -5120 0 -5120 0 0
-5120z m5768 3840 c23 -6 96 -15 161 -20 65 -5 131 -14 146 -20 15 -6 62 -15
103 -21 88 -12 286 -65 412 -109 145 -51 178 -64 202 -76 14 -8 33 -14 41 -14
13 0 73 -29 219 -108 31 -17 99 -57 150 -91 255 -165 411 -300 570 -495 77
-94 158 -207 158 -221 0 -2 13 -23 29 -47 39 -59 125 -230 151 -303 12 -33 29
-76 37 -95 20 -45 48 -162 84 -345 19 -95 22 -142 21 -345 -1 -221 -2 -243
-30 -370 -36 -165 -71 -283 -112 -375 -23 -53 -117 -245 -132 -270 -27 -44
-64 -100 -76 -115 -7 -8 -42 -53 -78 -100 -72 -94 -250 -271 -317 -316 -23
-16 -60 -43 -82 -60 -129 -100 -450 -248 -626 -289 -31 -7 -72 -17 -90 -23
-19 -6 -56 -14 -84 -17 -27 -4 -72 -13 -100 -21 -220 -60 -861 -37 -1140 40
-27 8 -70 17 -95 21 -25 3 -61 12 -80 20 -19 8 -57 18 -85 24 -27 5 -67 17
-87 26 -31 12 -38 20 -38 43 0 48 11 55 76 47 33 -4 70 -13 84 -20 14 -7 45
-16 70 -20 25 -3 65 -13 90 -20 25 -8 110 -24 190 -35 186 -28 522 -32 651 -7
46 9 111 21 144 26 79 14 183 43 270 76 39 14 84 31 100 37 17 6 37 16 45 23
8 6 42 25 75 41 72 35 226 136 298 196 131 109 317 320 394 448 31 51 147 287
170 345 32 80 54 147 64 195 5 25 16 65 23 90 8 25 18 70 21 100 4 30 13 90
21 134 16 91 18 331 3 426 -5 36 -16 111 -23 166 -7 56 -17 108 -22 115 -4 7
-14 41 -20 74 -13 62 -44 156 -70 212 -7 17 -14 34 -14 37 0 7 -96 204 -112
231 -122 199 -242 342 -408 487 -83 72 -102 88 -142 116 -18 13 -56 40 -85 61
-28 20 -80 52 -115 70 -35 18 -88 46 -118 62 -30 16 -59 29 -65 29 -5 0 -32
11 -60 25 -27 13 -56 25 -63 25 -8 0 -26 6 -40 14 -55 29 -274 94 -361 106
-38 5 -80 14 -94 19 -15 6 -73 15 -130 21 -57 6 -119 15 -138 21 -49 16 -655
24 -744 10 -38 -6 -116 -17 -171 -26 -56 -8 -128 -21 -160 -30 -32 -8 -69 -15
-82 -15 -31 0 -195 -36 -252 -56 -25 -8 -65 -21 -90 -28 -85 -26 -343 -123
-375 -142 -11 -6 -33 -15 -50 -19 -16 -3 -37 -12 -45 -20 -8 -7 -26 -16 -40
-20 -14 -4 -32 -13 -40 -20 -8 -7 -25 -16 -38 -20 -27 -8 -42 -17 -222 -136
-141 -93 -217 -145 -241 -167 -8 -7 -31 -25 -52 -41 -161 -124 -406 -375 -533
-546 -8 -11 -29 -38 -45 -60 -131 -170 -250 -384 -354 -635 -15 -36 -35 -84
-46 -108 -10 -23 -19 -49 -19 -58 0 -8 -8 -31 -19 -52 -10 -20 -22 -55 -26
-77 -4 -22 -11 -45 -15 -50 -5 -6 -16 -40 -24 -75 -8 -36 -20 -87 -26 -115
-29 -126 -50 -236 -56 -300 -3 -38 -12 -99 -20 -135 -16 -75 -19 -716 -4 -835
5 -38 14 -124 20 -190 6 -66 18 -149 25 -185 8 -36 19 -100 25 -143 5 -43 14
-86 19 -95 5 -9 12 -39 16 -67 4 -27 15 -76 26 -108 10 -31 19 -65 19 -74 0
-10 9 -40 19 -68 11 -27 32 -90 47 -140 15 -49 34 -99 41 -110 7 -11 13 -26
13 -34 0 -7 9 -35 21 -60 11 -25 29 -64 39 -86 36 -84 72 -161 81 -175 5 -8
14 -26 19 -40 6 -14 14 -32 20 -40 5 -8 17 -28 25 -45 8 -16 26 -48 39 -70 14
-22 32 -53 42 -70 58 -103 249 -370 303 -426 9 -9 43 -47 75 -85 211 -246 559
-537 795 -665 36 -20 82 -46 101 -57 19 -12 51 -31 70 -42 19 -11 42 -24 50
-30 13 -8 88 -42 140 -64 8 -3 22 -10 30 -14 31 -18 106 -51 130 -57 14 -4 30
-12 37 -17 7 -5 36 -16 65 -23 64 -16 142 -42 183 -60 54 -24 159 -54 227 -65
37 -6 78 -14 90 -19 13 -5 52 -12 88 -16 36 -3 90 -13 120 -20 50 -13 302 -37
541 -52 52 -3 163 -1 245 6 82 6 208 16 279 22 72 5 145 15 163 20 18 6 69 17
115 24 45 7 118 23 162 35 44 13 109 31 145 41 36 10 83 25 105 33 22 8 49 15
60 16 11 0 38 9 60 20 22 11 46 19 53 20 6 0 29 9 49 20 21 11 44 20 51 20 8
0 26 6 40 14 15 8 54 26 87 41 185 84 350 171 437 232 26 18 50 33 53 33 9 0
204 130 256 170 25 19 60 46 79 60 18 14 38 30 44 35 6 6 61 55 121 109 158
142 259 241 328 321 33 39 66 75 72 80 6 6 31 35 56 65 67 82 102 118 119 121
26 4 80 -34 80 -58 0 -21 -101 -166 -164 -233 -17 -19 -54 -62 -81 -95 -28
-33 -59 -69 -70 -81 -208 -216 -213 -221 -335 -324 -36 -30 -76 -65 -90 -78
-24 -23 -358 -277 -391 -297 -9 -5 -34 -20 -55 -33 -22 -12 -51 -30 -66 -40
-73 -47 -245 -135 -433 -222 -95 -43 -209 -89 -415 -165 -91 -34 -232 -75
-325 -96 -27 -6 -75 -16 -105 -24 -30 -7 -77 -16 -105 -20 -27 -3 -99 -15
-160 -25 -216 -38 -372 -50 -635 -50 -140 0 -289 5 -330 10 -41 6 -124 15
-184 20 -60 5 -139 16 -175 24 -36 8 -97 19 -136 25 -74 11 -132 24 -205 48
-25 8 -70 20 -100 27 -30 7 -64 17 -75 23 -11 6 -38 14 -60 18 -22 4 -51 13
-65 21 -14 7 -41 18 -60 23 -19 6 -66 22 -105 36 -38 15 -86 32 -105 38 -19 6
-42 16 -50 23 -8 6 -26 15 -40 19 -14 4 -36 16 -49 26 -13 11 -30 19 -38 19
-8 0 -26 9 -40 20 -14 11 -34 20 -44 20 -10 0 -21 5 -25 11 -3 6 -25 19 -48
30 -42 21 -84 44 -148 82 -20 12 -63 37 -95 56 -69 41 -106 69 -304 225 -155
122 -360 320 -479 462 -126 150 -296 385 -354 489 -9 17 -27 48 -40 70 -30 51
-106 202 -141 280 -15 33 -36 78 -46 101 -11 22 -19 46 -19 52 0 6 -9 26 -20
44 -11 18 -20 41 -20 51 0 9 -9 34 -20 54 -11 21 -20 46 -20 56 0 11 -6 33
-14 50 -14 29 -23 61 -56 187 -7 25 -19 66 -26 92 -8 25 -18 78 -24 116 -5 38
-14 81 -19 96 -6 14 -17 79 -26 143 -8 65 -19 141 -24 168 -19 106 -34 728
-22 913 15 224 64 529 111 687 10 33 21 77 24 97 4 20 13 50 21 65 8 15 15 37
15 48 0 11 9 40 20 64 11 24 20 51 20 60 0 9 9 33 20 54 11 20 20 43 20 50 0
7 9 29 20 50 11 20 20 43 20 49 0 7 12 36 25 63 14 28 25 55 25 61 0 6 6 17
14 23 8 7 17 24 21 39 4 15 12 34 20 42 7 8 16 26 20 40 4 14 13 32 20 40 7 8
16 25 20 38 5 18 111 187 143 227 4 6 24 35 44 65 74 108 102 146 166 224 68
83 76 91 249 269 171 176 489 418 718 548 44 25 161 85 260 133 99 48 191 94
205 101 14 7 41 16 60 20 19 4 44 14 55 21 11 8 28 14 38 14 10 0 39 9 65 19
90 36 248 84 352 105 36 8 94 21 130 29 143 34 219 47 305 52 50 3 135 13 190
20 55 8 114 17 130 19 57 8 660 -4 703 -14z"/>
</g>
</svg>
